<svg width="161" height="161" viewBox="0 0 161 161" fill="none" xmlns="http://www.w3.org/2000/svg">
<g filter="url(#filter0_d_9_107)">
<circle cx="80.5" cy="76.5" r="76.5" fill="#4E00FF"/>
</g>
<path d="M89.0625 89.5625C88.125 86.75 88.75 84.5625 89.0625 83.3125C88.75 82.0625 88.125 80.1875 88.75 77.375C89.6875 74.875 91.25 73.625 92.1875 72.6875C92.5 71.4375 93.125 69.5625 95.625 67.6875C97.8125 66.125 100 66.125 101.25 66.125C101.562 65.8125 102.188 65.5 102.812 65.1875V56.125C103.125 53.3125 100.938 51.125 98.125 51.125H58.125C55.3125 51.125 53.125 53.3125 53.125 56.125V86.75C53.125 89.5625 55.3125 91.75 58.125 91.75H90.3125C89.6875 91.125 89.375 90.5 89.0625 89.5625ZM59.375 63.625V57.375L78.125 66.75L96.875 57.375V63.625L78.125 73L59.375 63.625ZM120.625 78.9375C120 77.0625 118.438 76.75 117.5 75.8125C116.875 74.875 116.875 73 115.312 72.0625C113.75 70.8125 112.188 71.4375 110.938 71.125C109.688 70.8125 108.75 69.25 106.875 69.25C105 69.25 104.062 70.5 102.812 71.125C101.562 71.4375 100 70.8125 98.4375 72.0625C96.875 73 97.1875 74.5625 96.25 75.8125C95.3125 76.75 93.75 77.375 93.125 78.9375C92.5 80.8125 93.75 82.0625 93.75 83.3125C93.75 84.5625 92.5 85.8125 93.125 87.6875C93.75 89.5625 95.3125 89.875 96.25 90.8125C96.875 91.75 96.875 93.625 98.4375 94.5625C100 95.8125 101.562 95.1875 102.812 95.5C104.062 95.8125 105 97.375 106.875 97.375C108.75 97.375 109.688 96.125 110.938 95.5C112.188 95.1875 113.75 95.8125 115.312 94.5625C116.875 93.3125 116.875 91.75 117.5 90.8125C118.438 89.875 120 89.25 120.625 87.6875C121.25 85.8125 120 84.5625 120 83.3125C120 82.0625 121.25 80.8125 120.625 78.9375ZM106.875 93C101.563 93 97.5 88.625 97.5 83.625C97.5 78.625 101.875 74.25 106.875 74.25C111.875 74.25 116.25 78.625 116.25 83.625C116.25 88.625 112.188 93 106.875 93ZM111.563 83.3125C111.563 85.8125 109.375 88 106.875 88C104.375 88 102.188 85.8125 102.188 83.3125C102.188 80.8125 104.375 78.625 106.875 78.625C109.375 78.625 111.563 80.8125 111.563 83.3125ZM110.938 101.438L109.375 109.875L107.5 119.562L101.25 113.625L93.75 117.062L96.875 99.25C98.125 99.875 99.6875 100.188 101.25 100.188C102.188 100.813 103.438 101.438 104.375 101.75C105 102.063 105.938 102.062 106.875 102.062C108.438 102.375 109.688 102.062 110.938 101.438ZM120.938 108.938L114.688 106.75L115.938 99.875L117.812 98.9375L118.125 98.625L120.938 108.938Z" fill="white"/>
<defs>
<filter id="filter0_d_9_107" x="0" y="0" width="161" height="161" filterUnits="userSpaceOnUse" color-interpolation-filters="sRGB">
<feFlood flood-opacity="0" result="BackgroundImageFix"/>
<feColorMatrix in="SourceAlpha" type="matrix" values="0 0 0 0 0 0 0 0 0 0 0 0 0 0 0 0 0 0 127 0" result="hardAlpha"/>
<feOffset dy="4"/>
<feGaussianBlur stdDeviation="2"/>
<feComposite in2="hardAlpha" operator="out"/>
<feColorMatrix type="matrix" values="0 0 0 0 0 0 0 0 0 0 0 0 0 0 0 0 0 0 0.25 0"/>
<feBlend mode="normal" in2="BackgroundImageFix" result="effect1_dropShadow_9_107"/>
<feBlend mode="normal" in="SourceGraphic" in2="effect1_dropShadow_9_107" result="shape"/>
</filter>
</defs>
</svg>
