<svg xmlns="http://www.w3.org/2000/svg" width="30" height="28" viewBox="0 0 30 28" fill="none">
  <path d="M15 16.3333C17.7575 16.3333 20 14.2403 20 11.6667C20 9.093 17.7575 7 15 7C12.2425 7 10 9.093 10 11.6667C10 14.2403 12.2425 16.3333 15 16.3333ZM15 9.33333C16.3788 9.33333 17.5 10.3798 17.5 11.6667C17.5 12.9535 16.3788 14 15 14C13.6213 14 12.5 12.9535 12.5 11.6667C12.5 10.3798 13.6213 9.33333 15 9.33333Z" fill="black"/>
  <path d="M14.275 25.4496C14.4867 25.5903 14.7401 25.6659 15 25.6659C15.2599 25.6659 15.5133 25.5903 15.725 25.4496C16.105 25.1988 25.0362 19.1799 25 11.6666C25 6.52042 20.5137 2.33325 15 2.33325C9.48624 2.33325 4.99999 6.52042 4.99999 11.6608C4.96374 19.1799 13.895 25.1988 14.275 25.4496ZM15 4.66659C19.1362 4.66659 22.5 7.80609 22.5 11.6724C22.5262 16.8501 17.015 21.4993 15 23.0241C12.9862 21.4981 7.47374 16.8478 7.49999 11.6666C7.49999 7.80609 10.8637 4.66659 15 4.66659Z" fill="black"/>
</svg>