<svg width="33" height="31" viewBox="0 0 33 31" fill="none" xmlns="http://www.w3.org/2000/svg">
<g id="teenyicons:instagram-solid" clip-path="url(#clip0_29_100)">
<path id="Vector" d="M16.5 10.3252C15.0413 10.3252 13.6424 10.8691 12.6109 11.8373C11.5795 12.8055 11 14.1187 11 15.4879C11 16.8572 11.5795 18.1703 12.6109 19.1385C13.6424 20.1067 15.0413 20.6506 16.5 20.6506C17.9587 20.6506 19.3576 20.1067 20.3891 19.1385C21.4205 18.1703 22 16.8572 22 15.4879C22 14.1187 21.4205 12.8055 20.3891 11.8373C19.3576 10.8691 17.9587 10.3252 16.5 10.3252Z" fill="black"/>
<path id="Vector_2" fill-rule="evenodd" clip-rule="evenodd" d="M9.9 0C7.27436 0 4.75625 0.97907 2.89964 2.72183C1.04303 4.46458 0 6.82827 0 9.2929L0 21.6834C0 24.1481 1.04303 26.5117 2.89964 28.2545C4.75625 29.9972 7.27436 30.9763 9.9 30.9763H23.1C25.7256 30.9763 28.2437 29.9972 30.1004 28.2545C31.957 26.5117 33 24.1481 33 21.6834V9.2929C33 6.82827 31.957 4.46458 30.1004 2.72183C28.2437 0.97907 25.7256 0 23.1 0L9.9 0ZM8.8 15.4882C8.8 13.5712 9.61125 11.7328 11.0553 10.3773C12.4993 9.02185 14.4578 8.26035 16.5 8.26035C18.5422 8.26035 20.5007 9.02185 21.9447 10.3773C23.3888 11.7328 24.2 13.5712 24.2 15.4882C24.2 17.4051 23.3888 19.2435 21.9447 20.599C20.5007 21.9545 18.5422 22.716 16.5 22.716C14.4578 22.716 12.4993 21.9545 11.0553 20.599C9.61125 19.2435 8.8 17.4051 8.8 15.4882ZM24.2 8.26035H26.4V6.19526H24.2V8.26035Z" fill="black"/>
</g>
<defs>
<clipPath id="clip0_29_100">
<rect width="33" height="30.9763" fill="white"/>
</clipPath>
</defs>
</svg>
