<svg width="161" height="161" viewBox="0 0 161 161" fill="none" xmlns="http://www.w3.org/2000/svg">
<g filter="url(#filter0_d_9_97)">
<circle cx="80.5" cy="76.5" r="76.5" fill="#4E00FF"/>
</g>
<path d="M76.125 106.25C76.125 106.25 71.25 106.25 71.25 101.375C71.25 96.5 76.125 81.875 95.625 81.875C115.125 81.875 120 96.5 120 101.375C120 106.25 115.125 106.25 115.125 106.25H76.125ZM95.625 77C99.5038 77 103.224 75.4592 105.966 72.7164C108.709 69.9737 110.25 66.2538 110.25 62.375C110.25 58.4962 108.709 54.7763 105.966 52.0336C103.224 49.2908 99.5038 47.75 95.625 47.75C91.7462 47.75 88.0263 49.2908 85.2836 52.0336C82.5408 54.7763 81 58.4962 81 62.375C81 66.2538 82.5408 69.9737 85.2836 72.7164C88.0263 75.4592 91.7462 77 95.625 77ZM67.428 106.25C66.7056 104.728 66.3452 103.059 66.375 101.375C66.375 94.7694 69.69 87.9688 75.813 83.24C72.7573 82.2964 69.5729 81.8358 66.375 81.875C46.875 81.875 42 96.5 42 101.375C42 106.25 46.875 106.25 46.875 106.25H67.428ZM63.9375 77C67.1698 77 70.2698 75.716 72.5554 73.4304C74.841 71.1448 76.125 68.0448 76.125 64.8125C76.125 61.5802 74.841 58.4802 72.5554 56.1946C70.2698 53.909 67.1698 52.625 63.9375 52.625C60.7052 52.625 57.6052 53.909 55.3196 56.1946C53.034 58.4802 51.75 61.5802 51.75 64.8125C51.75 68.0448 53.034 71.1448 55.3196 73.4304C57.6052 75.716 60.7052 77 63.9375 77Z" fill="#FFF9F9"/>
<defs>
<filter id="filter0_d_9_97" x="0" y="0" width="161" height="161" filterUnits="userSpaceOnUse" color-interpolation-filters="sRGB">
<feFlood flood-opacity="0" result="BackgroundImageFix"/>
<feColorMatrix in="SourceAlpha" type="matrix" values="0 0 0 0 0 0 0 0 0 0 0 0 0 0 0 0 0 0 127 0" result="hardAlpha"/>
<feOffset dy="4"/>
<feGaussianBlur stdDeviation="2"/>
<feComposite in2="hardAlpha" operator="out"/>
<feColorMatrix type="matrix" values="0 0 0 0 0 0 0 0 0 0 0 0 0 0 0 0 0 0 0.25 0"/>
<feBlend mode="normal" in2="BackgroundImageFix" result="effect1_dropShadow_9_97"/>
<feBlend mode="normal" in="SourceGraphic" in2="effect1_dropShadow_9_97" result="shape"/>
</filter>
</defs>
</svg>
