<svg xmlns="http://www.w3.org/2000/svg" width="24" height="25" viewBox="0 0 24 25" fill="none">
  <path d="M19.485 21.0564L13.223 14.7944C12.723 15.2204 12.148 15.5501 11.498 15.7834C10.848 16.0168 10.1947 16.1334 9.53798 16.1334C7.93665 16.1334 6.58132 15.5791 5.47198 14.4704C4.36265 13.3618 3.80798 12.0068 3.80798 10.4054C3.80798 8.8041 4.36198 7.44843 5.46998 6.33843C6.57798 5.22843 7.93265 4.67277 9.53398 4.67143C11.1353 4.6701 12.4913 5.22477 13.602 6.33543C14.7127 7.4461 15.268 8.80177 15.268 10.4024C15.268 11.0971 15.145 11.7694 14.899 12.4194C14.653 13.0694 14.3296 13.6254 13.929 14.0874L20.191 20.3484L19.485 21.0564ZM9.53898 15.1324C10.8656 15.1324 11.9857 14.6758 12.899 13.7624C13.8123 12.8491 14.269 11.7288 14.269 10.4014C14.269 9.0741 13.8123 7.9541 12.899 7.04143C11.9857 6.12877 10.8656 5.6721 9.53898 5.67143C8.21232 5.67077 7.09198 6.12743 6.17798 7.04143C5.26398 7.95543 4.80732 9.07543 4.80798 10.4014C4.80865 11.7274 5.26532 12.8474 6.17798 13.7614C7.09065 14.6754 8.21065 15.1321 9.53798 15.1314" fill="#FEFEFE"/>
</svg>