<svg xmlns="http://www.w3.org/2000/svg" width="15" height="15" viewBox="0 0 15 15" fill="none">
  <g clip-path="url(#clip0_23_3)">
    <path d="M7.94802 0.778949C7.90666 0.695482 7.84279 0.62523 7.76364 0.576116C7.68448 0.527001 7.59318 0.500977 7.50002 0.500977C7.40687 0.500977 7.31556 0.527001 7.23641 0.576116C7.15725 0.62523 7.09339 0.695482 7.05202 0.778949L5.00502 4.92595L0.428023 5.59095C0.335673 5.60436 0.248919 5.64335 0.177576 5.7035C0.106232 5.76365 0.0531464 5.84257 0.0243241 5.93133C-0.00449822 6.02009 -0.00790677 6.11514 0.014484 6.20573C0.0368748 6.29632 0.0841713 6.37884 0.151023 6.44395L3.46302 9.67195L2.68102 14.2309C2.66533 14.3228 2.67564 14.4173 2.71079 14.5036C2.74593 14.5899 2.80451 14.6647 2.8799 14.7195C2.9553 14.7743 3.04452 14.807 3.13749 14.8138C3.23045 14.8206 3.32346 14.8012 3.40602 14.7579L7.50002 12.6049L11.594 14.7579C11.6766 14.8012 11.7696 14.8206 11.8626 14.8138C11.9555 14.807 12.0447 14.7743 12.1201 14.7195C12.1955 14.6647 12.2541 14.5899 12.2893 14.5036C12.3244 14.4173 12.3347 14.3228 12.319 14.2309L11.537 9.67095L14.849 6.44395C14.9159 6.37884 14.9632 6.29632 14.9856 6.20573C15.008 6.11514 15.0045 6.02009 14.9757 5.93133C14.9469 5.84257 14.8938 5.76365 14.8225 5.7035C14.7511 5.64335 14.6644 5.60436 14.572 5.59095L9.99502 4.92595L7.94802 0.778949Z" fill="#FBF335"/>
  </g>
  <defs>
    <clipPath id="clip0_23_3">
      <rect width="15" height="15" fill="white"/>
    </clipPath>
  </defs>
</svg>