<svg width="43" height="41" viewBox="0 0 43 41" fill="none" xmlns="http://www.w3.org/2000/svg">
<g id="ic:round-telegram">
<path id="Vector" d="M21.5 3.36377C11.61 3.36377 3.58331 10.8982 3.58331 20.1817C3.58331 29.4652 11.61 36.9997 21.5 36.9997C31.39 36.9997 39.4166 29.4652 39.4166 20.1817C39.4166 10.8982 31.39 3.36377 21.5 3.36377ZM29.8133 14.8C29.5446 17.4572 28.38 23.9153 27.7887 26.8921C27.5379 28.1534 27.0362 28.5739 26.5704 28.6243C25.5312 28.7084 24.7429 27.9852 23.7396 27.363C22.1629 26.3875 21.2671 25.7821 19.7441 24.8403C17.9704 23.7471 19.1171 23.1417 20.1383 22.1662C20.4071 21.914 24.9937 17.9954 25.0833 17.6422C25.0958 17.5887 25.0941 17.5332 25.0785 17.4804C25.0629 17.4277 25.0338 17.3793 24.9937 17.3395C24.8862 17.2554 24.7429 17.289 24.6175 17.3058C24.4562 17.3395 21.9479 18.9036 17.0566 21.9981C16.34 22.4521 15.695 22.6876 15.1216 22.6708C14.4766 22.654 13.2583 22.3344 12.3446 22.0485C11.2158 21.7122 10.3379 21.5272 10.4096 20.9385C10.4454 20.6358 10.8933 20.3331 11.7354 20.0135C16.9671 17.8777 20.4429 16.465 22.1808 15.7922C27.1616 13.8414 28.1829 13.505 28.8637 13.505C29.0071 13.505 29.3475 13.5386 29.5625 13.7068C29.7416 13.8414 29.7954 14.0263 29.8133 14.1609C29.7954 14.2618 29.8312 14.5645 29.8133 14.8Z" fill="black"/>
</g>
</svg>
