<svg xmlns="http://www.w3.org/2000/svg" width="48" height="48" viewBox="0 0 48 48" fill="none">
  <path d="M35 9.76168C35 10.6779 34.6312 11.5566 33.9749 12.2045C33.3185 12.8523 32.4283 13.2163 31.5 13.2163C30.5717 13.2163 29.6815 12.8523 29.0251 12.2045C28.3687 11.5566 28 10.6779 28 9.76168C28 8.84547 28.3687 7.96677 29.0251 7.31891C29.6815 6.67105 30.5717 6.30708 31.5 6.30708C32.4283 6.30708 33.3185 6.67105 33.9749 7.31891C34.6312 7.96677 35 8.84547 35 9.76168Z" fill="white"/>
  <path fill-rule="evenodd" clip-rule="evenodd" d="M31.5 11.2422C31.8978 11.2422 32.2794 11.0862 32.5607 10.8086C32.842 10.5309 33 10.1543 33 9.76168C33 9.36902 32.842 8.99244 32.5607 8.71478C32.2794 8.43712 31.8978 8.28114 31.5 8.28114C31.1022 8.28114 30.7206 8.43712 30.4393 8.71478C30.158 8.99244 30 9.36902 30 9.76168C30 10.1543 30.158 10.5309 30.4393 10.8086C30.7206 11.0862 31.1022 11.2422 31.5 11.2422ZM31.5 13.2163C31.9596 13.2163 32.4148 13.1269 32.8394 12.9533C33.264 12.7797 33.6499 12.5252 33.9749 12.2045C34.2999 11.8837 34.5577 11.5028 34.7336 11.0837C34.9095 10.6646 35 10.2153 35 9.76168C35 9.30802 34.9095 8.8588 34.7336 8.43966C34.5577 8.02053 34.2999 7.6397 33.9749 7.31891C33.6499 6.99812 33.264 6.74366 32.8394 6.57005C32.4148 6.39644 31.9596 6.30708 31.5 6.30708C30.5717 6.30708 29.6815 6.67105 29.0251 7.31891C28.3687 7.96677 28 8.84547 28 9.76168C28 10.6779 28.3687 11.5566 29.0251 12.2045C29.6815 12.8523 30.5717 13.2163 31.5 13.2163ZM19 16.1774C18.4696 16.1774 17.9609 16.3854 17.5858 16.7556C17.2107 17.1258 17 17.6279 17 18.1514C17 18.675 17.2107 19.1771 17.5858 19.5473C17.9609 19.9175 18.4696 20.1255 19 20.1255H26V39.8661C26 40.3896 26.2107 40.8918 26.5858 41.262C26.9609 41.6322 27.4696 41.8401 28 41.8401C28.5304 41.8401 29.0391 41.6322 29.4142 41.262C29.7893 40.8918 30 40.3896 30 39.8661V30.9828H33V39.8661C33 40.3896 33.2107 40.8918 33.5858 41.262C33.9609 41.6322 34.4696 41.8401 35 41.8401C35.5304 41.8401 36.0391 41.6322 36.4142 41.262C36.7893 40.8918 37 40.3896 37 39.8661V27.9398C38.4801 27.6884 39.8109 26.8984 40.7297 25.7258C41.6485 24.5532 42.0885 23.0833 41.9629 21.6061C41.8373 20.129 41.1552 18.7519 40.0513 17.7469C38.9474 16.7419 37.5018 16.1818 36 16.1774H19ZM39 22.0996C39 21.576 38.7893 21.0739 38.4142 20.7037C38.0391 20.3335 37.5304 20.1255 37 20.1255V24.0736C37.5304 24.0736 38.0391 23.8656 38.4142 23.4954C38.7893 23.1252 39 22.6231 39 22.0996Z" fill="white"/>
  <path fill-rule="evenodd" clip-rule="evenodd" d="M6 31.9699C6 31.4463 6.21071 30.9442 6.58579 30.574C6.96086 30.2038 7.46957 29.9958 8 29.9958H21C21.5304 29.9958 22.0391 30.2038 22.4142 30.574C22.7893 30.9442 23 31.4463 23 31.9699V39.8661C23 40.3896 22.7893 40.8918 22.4142 41.262C22.0391 41.6322 21.5304 41.8401 21 41.8401H8C7.46957 41.8401 6.96086 41.6322 6.58579 41.262C6.21071 40.8918 6 40.3896 6 39.8661V31.9699ZM10 38.8791V32.9569H12V38.8791H10ZM17 32.9569V38.8791H19V32.9569H17ZM11 28.0217C11 27.4982 11.2107 26.9961 11.5858 26.6259C11.9609 26.2557 12.4696 26.0477 13 26.0477H16C16.5304 26.0477 17.0391 26.2557 17.4142 26.6259C17.7893 26.9961 18 27.4982 18 28.0217V29.9958H16V28.0217H13V29.9958H11V28.0217Z" fill="white"/>
</svg>