<svg width="41" height="40" viewBox="0 0 41 40" fill="none" xmlns="http://www.w3.org/2000/svg">
<path id="Vector" d="M15.9188 39.1218L10.35 29.2844L0 23.9915L3.99375 20.249L12.15 21.5856L17.8875 16.1323L0.0562502 8.9146L4.78125 4.31668L26.4375 7.95224L33.4125 1.32269C34.275 0.502909 35.3438 0.0930176 36.6187 0.0930176C37.8937 0.0930176 38.9625 0.502909 39.825 1.32269C40.6875 2.14248 41.1187 3.14903 41.1187 4.34235C41.1187 5.53566 40.6875 6.54293 39.825 7.36414L32.7937 14.0472L36.6187 34.5774L31.8375 39.1218L24.1875 22.1737L18.45 27.627L19.9125 35.3259L15.9188 39.1218Z" fill="white"/>
</svg>
